<svg width="140" height="27" viewBox="0 0 140 27" fill="none" xmlns="http://www.w3.org/2000/svg">
<path d="M14.5566 19.2852C14.5566 18.2891 14.2051 17.5273 13.502 17C12.7988 16.4609 11.5332 15.8984 9.70508 15.3125C7.87695 14.7148 6.42969 14.1289 5.36328 13.5547C2.45703 11.9844 1.00391 9.86914 1.00391 7.20898C1.00391 5.82617 1.39062 4.5957 2.16406 3.51758C2.94922 2.42773 4.06836 1.57813 5.52148 0.96875C6.98633 0.359375 8.62695 0.0546875 10.4434 0.0546875C12.2715 0.0546875 13.9004 0.388672 15.3301 1.05664C16.7598 1.71289 17.8672 2.64453 18.6523 3.85156C19.4492 5.05859 19.8477 6.42969 19.8477 7.96484H14.5742C14.5742 6.79297 14.2051 5.88477 13.4668 5.24023C12.7285 4.58398 11.6914 4.25586 10.3555 4.25586C9.06641 4.25586 8.06445 4.53125 7.34961 5.08203C6.63477 5.62109 6.27734 6.33594 6.27734 7.22656C6.27734 8.05859 6.69336 8.75586 7.52539 9.31836C8.36914 9.88086 9.60547 10.4082 11.2344 10.9004C14.2344 11.8027 16.4199 12.9219 17.791 14.2578C19.1621 15.5938 19.8477 17.2578 19.8477 19.25C19.8477 21.4648 19.0098 23.2051 17.334 24.4707C15.6582 25.7246 13.4023 26.3516 10.5664 26.3516C8.59766 26.3516 6.80469 25.9941 5.1875 25.2793C3.57031 24.5527 2.33398 23.5625 1.47852 22.3086C0.634766 21.0547 0.212891 19.6016 0.212891 17.9492H5.50391C5.50391 20.7734 7.19141 22.1855 10.5664 22.1855C11.8203 22.1855 12.7988 21.9336 13.502 21.4297C14.2051 20.9141 14.5566 20.1992 14.5566 19.2852ZM37.8828 20.7266H28.6367L26.8789 26H21.2715L30.7988 0.40625H35.6855L45.2656 26H39.6582L37.8828 20.7266ZM30.0605 16.4551H36.459L33.2422 6.875L30.0605 16.4551ZM54.5469 0.40625L61.1211 18.9688L67.6602 0.40625H74.5859V26H69.2949V19.0039L69.8223 6.92773L62.9141 26H59.293L52.4023 6.94531L52.9297 19.0039V26H47.6562V0.40625H54.5469ZM84.4648 16.9824V26H79.1914V0.40625H89.1758C91.0977 0.40625 92.7852 0.757812 94.2383 1.46094C95.7031 2.16406 96.8281 3.16602 97.6133 4.4668C98.3984 5.75586 98.791 7.22656 98.791 8.87891C98.791 11.3867 97.9297 13.3672 96.207 14.8203C94.4961 16.2617 92.123 16.9824 89.0879 16.9824H84.4648ZM84.4648 12.7109H89.1758C90.5703 12.7109 91.6309 12.3828 92.3574 11.7266C93.0957 11.0703 93.4648 10.1328 93.4648 8.91406C93.4648 7.66016 93.0957 6.64648 92.3574 5.87305C91.6191 5.09961 90.5996 4.70117 89.2988 4.67773H84.4648V12.7109ZM107.703 21.7637H118.9V26H102.43V0.40625H107.703V21.7637ZM137.34 14.9082H127.215V21.7637H139.098V26H121.941V0.40625H139.062V4.67773H127.215V10.7773H137.34V14.9082Z" fill="#ECECEC" fill-opacity="0.37"/>
</svg>
